<?xml version="1.0" standalone="no"?>
<!DOCTYPE svg PUBLIC "-//W3C//DTD SVG 20010904//EN"
 "http://www.w3.org/TR/2001/REC-SVG-20010904/DTD/svg10.dtd">
<svg version="1.0" xmlns="http://www.w3.org/2000/svg"
 width="200.000000pt" height="140.000000pt" viewBox="0 0 200.000000 140.000000"
 preserveAspectRatio="xMidYMid meet">

<g transform="translate(0.000000,140.000000) scale(0.100000,-0.100000)"
fill="#000000" stroke="none">
<path d="M664 1298 c-90 -70 -561 -485 -574 -505 -13 -21 -13 -26 0 -51 28
-49 58 -42 152 38 129 111 252 217 362 313 55 48 103 87 106 87 3 0 128 -106
279 -235 179 -154 281 -235 296 -235 27 0 55 29 55 58 0 11 -10 32 -22 45 -27
30 -532 466 -568 490 -33 23 -52 21 -86 -5z"/>
<path d="M1655 1287 c-4 -10 -5 -21 -1 -24 10 -10 18 4 13 24 -4 17 -4 17 -12
0z"/>
<path d="M1396 1129 c-10 -52 -7 -99 7 -100 31 -3 83 3 90 11 5 4 -3 5 -17 3
-14 -3 -37 -2 -51 1 -24 6 -25 9 -19 61 7 59 0 75 -10 24z"/>
<path d="M1530 1150 c-10 -7 7 -10 58 -10 l72 0 0 -55 0 -55 48 1 c35 0 42 3
27 9 -11 5 -30 9 -42 9 -21 1 -23 6 -23 56 l0 55 -62 0 c-35 0 -70 -5 -78 -10z"/>
<path d="M1760 1150 c0 -6 27 -10 60 -10 33 0 60 4 60 10 0 6 -27 10 -60 10
-33 0 -60 -4 -60 -10z"/>
<path d="M1390 955 l0 -55 183 1 c164 2 174 3 102 11 -44 5 -122 7 -173 6 -89
-3 -93 -2 -99 20 -3 12 -2 33 1 47 4 14 2 25 -4 25 -5 0 -10 -24 -10 -55z"/>
<path d="M1804 996 c-3 -8 -4 -31 -2 -52 3 -38 4 -39 47 -42 24 -2 48 1 53 6
6 6 -7 8 -35 5 -39 -5 -46 -3 -52 16 -3 12 -4 35 0 51 7 30 -1 42 -11 16z"/>
<path d="M1391 813 l-1 -53 110 0 c109 0 109 0 124 -27 l15 -28 1 28 c0 37
-36 50 -120 44 -96 -6 -114 1 -121 48 -6 39 -6 38 -8 -12z"/>
<path d="M1391 635 l-1 -50 113 -2 c93 -2 114 -6 125 -20 12 -16 13 -16 10 7
-3 25 -4 25 -118 30 l-115 5 -6 40 -6 40 -2 -50z"/>
<path d="M1135 480 c-33 -33 -54 -60 -47 -60 8 0 12 -16 12 -45 l0 -45 95 0
95 0 0 44 c0 26 5 46 13 49 7 3 -9 26 -43 61 -30 31 -57 56 -60 56 -3 0 -32
-27 -65 -60z m145 -92 c0 -36 -4 -48 -15 -48 -10 0 -15 11 -15 35 0 28 -4 35
-20 35 -16 0 -20 -7 -20 -35 l0 -35 -50 0 -50 0 0 47 c0 42 5 52 42 90 l42 43
43 -42 c39 -38 43 -47 43 -90z"/>
<path d="M1110 494 c0 -8 5 -12 10 -9 6 3 10 10 10 16 0 5 -4 9 -10 9 -5 0
-10 -7 -10 -16z"/>
<path d="M1391 468 l-1 -48 153 0 c83 0 157 4 164 8 6 4 -59 7 -145 7 l-157 0
-6 40 -6 40 -2 -47z"/>
<path d="M1400 321 c-14 -28 -12 -74 4 -97 22 -29 28 -12 9 26 -13 26 -14 39
-5 62 12 32 8 37 -8 9z"/>
<path d="M1533 293 c-10 -10 -14 -15 -9 -10 14 10 74 9 97 -3 12 -7 19 -21 19
-41 0 -18 4 -28 10 -24 17 10 11 54 -10 75 -25 25 -81 26 -107 3z"/>
<path d="M1392 144 l-2 -51 46 -7 c73 -10 302 -7 309 4 4 6 -58 11 -167 12
l-173 3 -6 45 -6 45 -1 -51z"/>
</g>
</svg>
